#!OML:ASF H:\ManfredETheater\Project 1\Capture day 1\Session 1\subject.ASF
:FULLY-SPECIFIED
:DEGREES
121
root -0.619429 14.804 -15.1798 -207.994 30.1377 -194.522
lowerback 17.6651 -1.1794 1.97794
upperback 2.29256 -0.483388 3.695
thorax -7.42947 -0.0707705 2.94188
lowerneck -11.4632 5.38579 5.02033
upperneck 17.4705 9.26604 -11.2174
head 8.06262 4.00358 -3.51961
rclavicle 1.03368e-014 -8.90555e-014
rhumerus -34.701 7.6899 -66.6955
rradius 94.2355
rwrist 0.870196
rhand -22.3231 -2.54469
rfingers 7.12502
rthumb 4.09675 -32.4851
lclavicle 1.03368e-014 -8.90555e-014
lhumerus -53.47 -5.85611 76.71
lradius 88.4371
lwrist 5.31176
lhand -28.557 -1.11567
lfingers 7.12502
lthumb -1.92385 28.8554
rfemur -24.926 -2.96502 9.23632
rtibia 80.4839
rfoot -27.1333 -10.072
rtoes -28.2866
lfemur -30.4388 5.76265 -14.9174
ltibia 45.522
lfoot -5.98888 3.5451
ltoes -16.9382
122
root -0.588633 14.8304 -15.456 -207.537 29.9608 -193.841
lowerback 17.2748 -1.10054 2.13973
upperback 2.21147 -0.362713 3.78977
thorax -7.30886 -0.0188492 2.91633
lowerneck -11.5528 5.21851 4.81157
upperneck 17.5707 9.00157 -10.8739
head 8.06118 3.88482 -3.40055
rclavicle -7.99114e-014 5.725e-014
rhumerus -36.2335 6.98006 -68.3512
rradius 90.6343
rwrist 0.667243
rhand -21.8284 -2.48157
rfingers 7.12502
rthumb 4.57444 -32.4122
lclavicle -7.99114e-014 5.725e-014
lhumerus -52.8872 -5.19886 75.3568
lradius 88.6487
lwrist 4.90244
lhand -28.364 -0.915036
lfingers 7.12502
lthumb -1.73743 29.0576
rfemur -23.7181 -2.85098 9.31403
rtibia 80.5074
rfoot -27.764 -11.1649
rtoes -29.5887
lfemur -30.053 5.91804 -14.9246
ltibia 45.2419
lfoot -4.53745 2.95029
ltoes -18.3656
123
root -0.559511 14.8567 -15.729 -207.067 29.7325 -193.107
lowerback 16.9255 -1.05129 2.30718
upperback 2.13153 -0.276688 3.88843
thorax -7.20757 0.0175102 2.9015
lowerneck -11.673 5.05696 4.6289
upperneck 17.6782 8.74339 -10.5475
head 8.07188 3.76805 -3.2901
rclavicle -3.57812e-014 -4.77083e-014
rhumerus -37.66 5.98235 -69.7721
rradius 87.0027
rwrist 0.51628
rhand -21.4776 -2.36909
rfingers 7.12502
rthumb 4.91323 -32.2921
lclavicle -3.57812e-014 -4.77083e-014
lhumerus -52.2873 -4.55394 73.9474
lradius 88.8517
lwrist 4.47492
lhand -28.1071 -0.694193
lfingers 7.12502
lthumb -1.4894 29.2804
rfemur -22.4941 -2.75661 9.45266
rtibia 80.5284
rfoot -28.269 -12.2109
rtoes -30.7362
lfemur -29.7069 5.84626 -14.8677
ltibia 45.1139
lfoot -2.77449 2.16897
ltoes -19.9725
124
root -0.53258 14.8829 -15.997 -206.583 29.4185 -192.346
lowerback 16.6247 -1.02759 2.44332
upperback 2.04596 -0.226757 3.99005
thorax -7.13702 0.0381379 2.91753
lowerneck -11.824 4.8983 4.46326
upperneck 17.7824 8.49113 -10.2507
head 8.09123 3.65198 -3.19095
rclavicle -8.15017e-014 -1.90833e-014
rhumerus -38.9819 4.72262 -70.9273
rradius 83.381
rwrist 0.493908
rhand -21.2974 -2.24492
rfingers 7.12502
rthumb 5.08717 -32.1639
lclavicle -8.15017e-014 -1.90833e-014
lhumerus -51.6398 -3.91793 72.5068
lradius 89.0084
lwrist 4.07823
lhand -27.8071 -0.461571
lfingers 7.12502
lthumb -1.19957 29.5148
rfemur -21.3049 -2.72038 9.61245
rtibia 80.5802
rfoot -28.5979 -13.2115
rtoes -31.8701
lfemur -29.4689 5.5487 -14.7809
ltibia 45.1881
lfoot -0.775456 1.20374
ltoes -21.0398
125
root -0.507858 14.9089 -16.2576 -206.094 29.014 -191.589
lowerback 16.3863 -1.01866 2.51852
upperback 1.95534 -0.203025 4.09472
thorax -7.1046 0.0484252 2.97905
lowerneck -12.0102 4.74234 4.30377
upperneck 17.8762 8.24666 -9.9868
head 8.11737 3.53654 -3.10212
rclavicle 4.17448e-014 -2.8625e-014
rhumerus -40.2003 3.22602 -71.7979
rradius 79.8027
rwrist 0.634393
rhand -21.2917 -2.17846
rfingers 7.12502
rthumb 5.09274 -32.0973
lclavicle 4.17448e-014 -2.8625e-014
lhumerus -50.9282 -3.27357 71.0589
lradius 89.0931
lwrist 3.72007
lhand -27.4947 -0.213764
lfingers 7.12502
lthumb -0.89789 29.7641
rfemur -20.1947 -2.72648 9.76739
rtibia 80.6984
rfoot -28.7264 -14.1111
rtoes -32.9539
lfemur -29.3914 5.08522 -14.6969
ltibia 45.5259
lfoot 1.15466 0.0705259
ltoes -21.6538
126
root -0.484491 14.935 -16.5089 -205.61 28.5084 -190.861
lowerback 16.2113 -1.01504 2.5022
upperback 1.86622 -0.19858 4.19972
thorax -7.10411 0.0523997 3.09865
lowerneck -12.2479 4.58491 4.13313
upperneck 17.9602 8.00386 -9.74227
head 8.15143 3.41802 -3.01676
rclavicle -5.88403e-014 4.77083e-014
rhumerus -41.3137 1.48969 -72.3725
rradius 76.2886
rwrist 0.96735
rhand -21.4009 -2.17125
rfingers 7.12502
rthumb 4.98723 -32.0926
lclavicle -5.88403e-014 4.77083e-014
lhumerus -50.1337 -2.60132 69.6238
lradius 89.0831
lwrist 3.40523
lhand -27.2002 0.049741
lfingers 7.12502
lthumb -0.613476 30.0286
rfemur -19.1985 -2.7615 9.89359
rtibia 80.914
rfoot -28.6269 -14.8691
rtoes -33.985
lfemur -29.5057 4.51744 -14.65
ltibia 46.1687
lfoot 2.80941 -1.07935
ltoes -21.4314
127
root -0.461752 14.9601 -16.7494 -205.129 27.9044 -190.169
lowerback 16.1084 -1.01272 2.37943
upperback 1.77917 -0.209632 4.30839
thorax -7.13976 0.0525025 3.28784
lowerneck -12.5436 4.42694 3.93683
upperneck 18.0271 7.76235 -9.50202
head 8.19096 3.29624 -2.92749
rclavicle 8.74653e-015 -1.87653e-013
rhumerus -42.3287 -0.454115 -72.6616
rradius 72.8548
rwrist 1.41614
rhand -21.6515 -2.26765
rfingers 7.12502
rthumb 4.74528 -32.1945
lclavicle 8.74653e-015 -1.87653e-013
lhumerus -49.2675 -1.87601 68.221
lradius 88.9681
lwrist 3.13706
lhand -26.9588 0.334459
lfingers 7.12502
lthumb -0.380313 30.3139
rfemur -18.352 -2.80914 9.99457
rtibia 81.2507
rfoot -28.26 -15.501
rtoes -35.0694
lfemur -29.8103 3.89604 -14.6457
ltibia 47.1076
lfoot 3.97782 -2.153
ltoes -20.2743
